/* XPM */
static char *_075e7626f944db7831c147e2d93f1dbT4Anu8Yl7Oe8vq4k[] = {
/* columns rows colors chars-per-pixel */
"64 64 33 1 ",
"  c #EF0F6B",
". c #F50967",
"X c #F60867",
"o c #E7176F",
"O c #EA146D",
"+ c #DB2375",
"@ c #DA2475",
"# c #D52978",
"$ c #D42A78",
"% c #C7377F",
"& c #C43A81",
"* c #B74787",
"= c #BA4486",
"- c #B54989",
"; c #B64888",
": c #AC528D",
"> c #A65890",
", c #956999",
"< c #906E9C",
"1 c #8D719E",
"2 c #807EA4",
"3 c #639BB3",
"4 c #619DB4",
"5 c #609EB5",
"6 c #51ADBC",
"7 c #4BB3BF",
"8 c #44BAC3",
"9 c #40BEC5",
"0 c #32CCCC",
"q c #28D6D2",
"w c #23DBD4",
"e c #18E6DA",
"r c #08F6E2",
/* pixels */
"rrrrrrrrrrrrrrrrrrrrrrrrrrrrrrrrrrrrrrrrrrrrrrrrrrrrrrrrrrrrrrrr",
"rrrrrrrrrrrrrrrrrrrrrrrrrrrrrrrrrrrrrrrrrrrrrrrrrrrrrrrrrrrrrrrr",
"rrrrrrrrrrrrrrrrrrrrrrrrrrrrrrrrrrrrrrrrrrrrrrrrrrrrrrrrrrrrrrrr",
"rrrrrrrrrrrrrrrrrrrrrrrrrrrrrrrrrrrrrrrrrrrrrrrrrrrrrrrrrrrrrrrr",
"rrrrrrrrrrrrrrrrrrrrrrrrrrrrrrrrrrrrrrrrrrrrrrrrrrrrrrrrrrrrrrrr",
"rrrrrrrrrrrrrrrrrrrrrrrrrrrrrrrrrrrrrrrrrrrrrrrrrrrrrrrrrrrrrrrr",
"rrrrrrrrrrrrrrrrrrrrrrrrrrrrrrrrrrrrrrrrrrrrrrrrrrrrrrrrrrrrrrrr",
"rrrrrrrrrrrrrrrrrrrrrrrrrrrrrrrrrrrrrrrrrrrrrrrrrrrrrrrrrrrrrrrr",
"rrrrrrrrrrrrrrrrrrrrrrrrrrrrrrrrrrrrrrrrrrrrrrrrrrrrrrrrrrrrrrrr",
"rrrrrrrrrrrrrrrrrrrrrrrrrrrrrrrrrrrrrrrrrrrrrrrrrrrrrrrrrrrrrrrr",
"rrrrrrrrrrrrrrrrrrrrrrrrrrrrrrrrrrrrrrrrrrrrrrrrrrrrrrrrrrrrrrrr",
"rrrrrrrrrrrrrrrrrrrrrrrrrrrrrrrrrrrrrrrrrrrrrrrrrrrrrrrrrrrrrrrr",
"rrrrrrrrrrrrrrrrrrrrrrrrrrrrrrrrrrrrrrrrrrrrrrrrrrrrrrrrrrrrrrrr",
"rrrrrrrrrrrrrrrrrrrrrrrrrrrrrrrrrrrrrrrrrrrrrrrrrrrrrrrrrrrrrrrr",
"rrrrrrrrrrrrrrrrrrrrrrrrrrrrrrrrrrrrrrrrrrrrrrrrrrrrrrrrrrrrrrrr",
"rrrrrrrrrrrrrrrrrrrrrrrrrr03<-#OXO#-<30rrrrrrrrrrrrrrrrrrrrrrrrr",
"rrrrrrrrrrrrrrrrrrrrrrre5>O.XXXXXXXXXXo>4errrrrrrrrrrrrrrrrrrrrr",
"rrrrrrrrrrrrrrrrrrrrrr5-XX..XXXXXXXXXXXXX-5rrrrrrrrrrrrrrrrrrrrr",
"rrrrrrrrrrrrrrrrrrrr0,XXXXXXXXXXXXXXXXXXXXX,0rrrrrrrrrrrrrrrrrrr",
"rrrrrrrrrrrrrrrrrrr7*XXXXXXXXXXXXXXXXXXXXXXX*7rrrrrrrrrrrrrrrrrr",
"rrrrrrrrrrrrrrrrrr6%XXXXXXXXXXXXXXXXXXXXXXXXX%6rrrrrrrrrrrrrrrrr",
"rrrrrrrrrrrrrrrrr8&XXXXXXXXXXXXXXXXXXXXXXXXXXX&8rrrrrrrrrrrrrrrr",
"rrrrrrrrrrrrrrrrw:XXXXXXXXXXXXXXXXXXXXXXXXXXXXX:wrrrrrrrrrrrrrrr",
"rrrrrrrrrrrrrrrr2XXXXXXXXXXXXXXXXXXXXXXXXXXXXXXX2rrrrrrrrrrrrrrr",
"rrrrrrrrrrrrrrr9+XXXXXXXXXXXXXXXXXXXXXXXXXXXXXXX+9rrrrrrrrrrrrrr",
"rrrrrrrrrrrrrrr1XXXXXXXXXXXXXXXXXXXXXXXXXXXXXXXXX1rrrrrrrrrrrrrr",
"rrrrrrrrrrrrrrq#XXXXXXXXXXXXXXXXXXXXXXXXXXXXXXXXX#qrrrrrrrrrrrrr",
"rrrrrrrrrrrrrr5XXXXXXXXXXXXXXXXXXXXXXXXXXXXXXXXXXX5rrrrrrrrrrrrr",
"rrrrrrrrrrrrrr<XXXXXXXXXXXXXXXXXXXXXXXXXXXXXXXXXXX<rrrrrrrrrrrrr",
"rrrrrrrrrrrrrr=XXXXXXXXXXXXXXXXXXXXXXXXXXXXXXXXXXX=rrrrrrrrrrrrr",
"rrrrrrrrrrrrrr@XXXXXXXXXXXXXXXXXXXXXXXXXXXXXXXXXXX@rrrrrrrrrrrrr",
"rrrrrrrrrrrrrr XXXXXXXXXXXXXXXXXXXXXXXXXXXXXXXXXXX rrrrrrrrrrrrr",
"rrrrrrrrrrrrrr XXXXXXXXXXXXXXXXXXXXXXXXXXXXXXXXXXX rrrrrrrrrrrrr",
"rrrrrrrrrrrrrr@XXXXXXXXXXXXXXXXXXXXXXXXXXXXXXXXXXX@rrrrrrrrrrrrr",
"rrrrrrrrrrrrrr=XXXXXXXXXXXXXXXXXXXXXXXXXXXXXXXXXXX=rrrrrrrrrrrrr",
"rrrrrrrrrrrrrr<XXXXXXXXXXXXXXXXXXXXXXXXXXXXXXXXXXX<rrrrrrrrrrrrr",
"rrrrrrrrrrrrrr5XXXXXXXXXXXXXXXXXXXXXXXXXXXXXXXXXXX5rrrrrrrrrrrrr",
"rrrrrrrrrrrrrrq#XXXXXXXXXXXXXXXXXXXXXXXXXXXXXXXXX#qrrrrrrrrrrrrr",
"rrrrrrrrrrrrrrr1XXXXXXXXXXXXXXXXXXXXXXXXXXXXXXXXX1rrrrrrrrrrrrrr",
"rrrrrrrrrrrrrrr9@XXXXXXXXXXXXXXXXXXXXXXXXXXXXXXX+9rrrrrrrrrrrrrr",
"rrrrrrrrrrrrrrrr2XXXXXXXXXXXXXXXXXXXXXXXXXXXXXXX2rrrrrrrrrrrrrrr",
"rrrrrrrrrrrrrrrrw:XXXXXXXXXXXXXXXXXXXXXXXXXXXXX:wrrrrrrrrrrrrrrr",
"rrrrrrrrrrrrrrrrr8&XXXXXXXXXXXXXXXXXXXXXXXXXXX&8rrrrrrrrrrrrrrrr",
"rrrrrrrrrrrrrrrrrr6%XXXXXXXXXXXXXXXXXXXXXXXXX%6rrrrrrrrrrrrrrrrr",
"rrrrrrrrrrrrrrrrrrr7*XXXXXXXXXXXXXXXXXXXXXXX*7rrrrrrrrrrrrrrrrrr",
"rrrrrrrrrrrrrrrrrrrr0,XXXXXXXXXXXXXXXXXXXXX,0rrrrrrrrrrrrrrrrrrr",
"rrrrrrrrrrrrrrrrrrrrrr5-XXXXXXXXXXXXXXXXX-5rrrrrrrrrrrrrrrrrrrrr",
"rrrrrrrrrrrrrrrrrrrrrrre4>oXXXXXXXXXXXo>4errrrrrrrrrrrrrrrrrrrrr",
"rrrrrrrrrrrrrrrrrrrrrrrrrr04<;#OXO#;<30rrrrrrrrrrrrrrrrrrrrrrrrr",
"rrrrrrrrrrrrrrrrrrrrrrrrrrrrrrrrrrrrrrrrrrrrrrrrrrrrrrrrrrrrrrrr",
"rrrrrrrrrrrrrrrrrrrrrrrrrrrrrrrrrrrrrrrrrrrrrrrrrrrrrrrrrrrrrrrr",
"rrrrrrrrrrrrrrrrrrrrrrrrrrrrrrrrrrrrrrrrrrrrrrrrrrrrrrrrrrrrrrrr",
"rrrrrrrrrrrrrrrrrrrrrrrrrrrrrrrrrrrrrrrrrrrrrrrrrrrrrrrrrrrrrrrr",
"rrrrrrrrrrrrrrrrrrrrrrrrrrrrrrrrrrrrrrrrrrrrrrrrrrrrrrrrrrrrrrrr",
"rrrrrrrrrrrrrrrrrrrrrrrrrrrrrrrrrrrrrrrrrrrrrrrrrrrrrrrrrrrrrrrr",
"rrrrrrrrrrrrrrrrrrrrrrrrrrrrrrrrrrrrrrrrrrrrrrrrrrrrrrrrrrrrrrrr",
"rrrrrrrrrrrrrrrrrrrrrrrrrrrrrrrrrrrrrrrrrrrrrrrrrrrrrrrrrrrrrrrr",
"rrrrrrrrrrrrrrrrrrrrrrrrrrrrrrrrrrrrrrrrrrrrrrrrrrrrrrrrrrrrrrrr",
"rrrrrrrrrrrrrrrrrrrrrrrrrrrrrrrrrrrrrrrrrrrrrrrrrrrrrrrrrrrrrrrr",
"rrrrrrrrrrrrrrrrrrrrrrrrrrrrrrrrrrrrrrrrrrrrrrrrrrrrrrrrrrrrrrrr",
"rrrrrrrrrrrrrrrrrrrrrrrrrrrrrrrrrrrrrrrrrrrrrrrrrrrrrrrrrrrrrrrr",
"rrrrrrrrrrrrrrrrrrrrrrrrrrrrrrrrrrrrrrrrrrrrrrrrrrrrrrrrrrrrrrrr",
"rrrrrrrrrrrrrrrrrrrrrrrrrrrrrrrrrrrrrrrrrrrrrrrrrrrrrrrrrrrrrrrr",
"rrrrrrrrrrrrrrrrrrrrrrrrrrrrrrrrrrrrrrrrrrrrrrrrrrrrrrrrrrrrrrrr"
};
