/* XPM */
static char *ffa201666b004af6fc1372d361b52ee0i709LMLiC1xJ2Bjw[] = {
/* columns rows colors chars-per-pixel */
"48 48 65 1 ",
"  c None",
". c #314F55",
"X c #007366",
"o c #007467",
"O c #107F78",
"+ c #465762",
"@ c #465863",
"# c #56707D",
"$ c #56717D",
"% c #57717D",
"& c #17827C",
"* c #009688",
"= c #019688",
"- c #019789",
"; c #07998D",
": c #0A998E",
"> c #0D9B90",
", c #0F9C92",
"< c #2B8380",
"1 c #2C8481",
"2 c #1AA098",
"3 c #1BA098",
"4 c #1EA29A",
"5 c #27A5A0",
"6 c #2BA6A3",
"7 c #36ABA9",
"8 c #3BADAD",
"9 c #3CADAD",
"0 c #3EAEAF",
"q c #4DB3B7",
"w c #51B6BA",
"e c #55B7BC",
"r c #59B8BE",
"t c #59B8BF",
"y c #5CB9C0",
"u c #5EBAC2",
"i c #6FC1CD",
"p c #95B2CA",
"a c #96B3CA",
"s c #80C7D7",
"d c #90CEE0",
"f c #93CFE3",
"g c #95D0E4",
"h c #99D1E6",
"j c #9ED3EA",
"k c #A0D4EB",
"l c #A5D6ED",
"z c #A6D6ED",
"x c #A6D6EE",
"c c #ACD8F1",
"v c #B4DBF7",
"b c #B8DDF9",
"n c #BADDFA",
"m c #BBDDFB",
"M c #BBDEFA",
"N c #BADEFB",
"B c #BBDEFB",
"V c #BCDDFB",
"C c #BCDEFA",
"Z c #BCDEFB",
"A c #BCDFFB",
"S c #BBDDFC",
"D c #BBDEFC",
"F c #BBDFFC",
"G c #BCDEFC",
/* pixels */
"                                                ",
"                                                ",
"                                                ",
"                                                ",
"                                                ",
"                       ZZ                       ",
"                    GNZNNZNZ                    ",
"                  FNNZNZZNZNZNZ                 ",
"               ZNZNZNZNZNZNZNZNZN               ",
"            ZZNZZNZNZNZNZNZNZNZNZNZG            ",
"          ZNZNZNNZNZNZNZNZNZNZNZNZNZNZ          ",
"       NNZNZNZNZZNZNZNZNZNZNZNZNZNZNZNZNG       ",
"      ZNZNZNZNZNNZNZNZNZNZNZNZNZNZNZNZNZNZ      ",
"     NNZNZNZNZNZZNZNZNZNZNZNZNZNZNZNZNZNZNF     ",
"     NZNZNZNZNZNNZNZNZNZNZNZNZNZNZNZNZNZNZN     ",
"     NNZNZNZNZNZZNZNZNZNZNZNZNZNZNZNZNZNZNZ     ",
"     NZNGGNNNNNNNZNZNZNZNZNZNZNZNZNZNZNZNZN     ",
"     ZNZG&X==:rNZNZNZNZNZNZNZNZNZNZNZNZNZNZ     ",
"     ZZNA1o====fNZNZNZNZNZNZNZNZNZGGNZNZNZN     ",
"     NNZAANNNe=wZNZNZNZNZNZNZNZNZNZGZNZNZNZ     ",
"     NZNVVVANf==****************===7ZNZNNZZ     ",
"     ZNZVVAVZN3=****************===iNZNZZNN     ",
"     NZNZZZZNZr=****************==3NZNZNNZN     ",
"     ZNZNZZZZZh;****************==iZNZNZZNZ     ",
"     NZNNZNZNZA4========*********>vNZNZNNZN     ",
"     ZNZZNZNZNAu========*********uGGNZNZZNZ     ",
"     NZNNZNZNZNs========********;cZNZNZNNZZ     ",
"     ZNZZNZNZNZN========********qZNZNZNZZNN     ",
"     NZNNZNZNZNZ============****kNZNNZNZNZN     ",
"     ZNZZNZNZNZN============***9ZNNZZNZNZNZ     ",
"     NZNNZNZNZNZ==============6lNZNZNZNZNZN     ",
"     ZNZZNZNZNNN==NNZNNNNNZNNNNNZNZNZNZNZNZ     ",
"     NZNZNZNZNZN:*xNZNNNNZNZNZNZNZNZNZNZNZZ     ",
"     ZNZNZNZNZNZ8*7xNZNNZNZNNbZNZNZNZNZNZNN     ",
"     NZNZNZNZNZNj>=============NNZNZNZNZNZN     ",
"     ZNZNZNZNZNZGx9&..&===O..&=ZZNZNZNZNZNZ     ",
"     ZZNZNZNZNZNZNZ+%#@NNN+##@ZNNZNZNZNZNZN     ",
"     NNZNZNZNZNZNZN@##@ZZN+##@NZZNZNZNZNZNZ     ",
"     NZNZNZNZNZNZNNa@@aNNZp+@aZNNZNZNZNZNZZ     ",
"     ZNZNZNZNZNZNZNZNZZNZNNZZNNZZNZNZNZNZNN     ",
"     FNZZNZNZNZNNZNZNZNZNZNZNZNZNZNZNZNZNZF     ",
"      GNNZNZNZNZZNZNZNZNZNZNZNZNZNZNZNZNNZ      ",
"       GZNZNNZZNNZZNNZNZNZNZNZNZNZNZNZNZZ       ",
"                                                ",
"                                                ",
"                                                ",
"                                                ",
"                                                "
};
