/* XPM */
static char *eb8744ee05214ab0cdf1fafa2f0ba5c6mBYprfwc76mziena[] = {
/* columns rows colors chars-per-pixel */
"64 64 134 2 ",
"   c #EF0E3D",
".  c #EE0F3E",
"X  c #F30B3B",
"o  c #F70838",
"O  c #F60938",
"+  c #F60939",
"@  c #F50A39",
"#  c #F40A3A",
"$  c #F40B3A",
"%  c #F20C3B",
"&  c #F10C3C",
"*  c #F00D3C",
"=  c #EB113F",
"-  c #ED103E",
";  c #ED103F",
":  c #EC113F",
">  c #BF345B",
",  c #BC375D",
"<  c #BA385E",
"1  c #BA385F",
"2  c #B73A60",
"3  c #B33D63",
"4  c #B23E63",
"5  c #B53C61",
"6  c #B43D62",
"7  c #B03F64",
"8  c #B13F64",
"9  c #B83960",
"0  c #DF1B47",
"q  c #DB1E4A",
"w  c #DC1D49",
"e  c #DE1C48",
"r  c #E61543",
"t  c #E51643",
"y  c #E61643",
"u  c #EA1240",
"i  c #E81441",
"p  c #E81442",
"a  c #E21845",
"s  c #E31845",
"d  c #E01A46",
"f  c #D7214C",
"g  c #D5224D",
"h  c #D4234E",
"j  c #D3244E",
"k  c #D2254F",
"l  c #D3254F",
"z  c #D9204B",
"x  c #D8214C",
"c  c #C52F57",
"v  c #C62E57",
"b  c #CF2851",
"n  c #CD2952",
"m  c #CC2953",
"M  c #CE2852",
"N  c #CB2B54",
"B  c #CA2C55",
"V  c #C82D56",
"C  c #D02751",
"Z  c #C33159",
"A  c #C23259",
"S  c #C1325A",
"D  c #C43058",
"F  c #9F4D6F",
"G  c #9C4F71",
"H  c #9E4E70",
"J  c #8E5A7A",
"K  c #8C5C7B",
"L  c #8B5D7C",
"P  c #8C5D7C",
"I  c #955575",
"U  c #975475",
"Y  c #995273",
"T  c #985374",
"R  c #905979",
"E  c #925878",
"W  c #AE4166",
"Q  c #AE4266",
"!  c #A7476A",
"~  c #A7476B",
"^  c #A8466A",
"/  c #A5486B",
"(  c #A34A6D",
")  c #A4496C",
"_  c #A04D6F",
"`  c #B04065",
"'  c #87607E",
"]  c #86617F",
"[  c #7B6986",
"{  c #796B87",
"}  c #7D6885",
"|  c #7C6985",
" . c #756E8A",
".. c #746F8A",
"X. c #786C88",
"o. c #6F738E",
"O. c #72708B",
"+. c #73708B",
"@. c #70738D",
"#. c #6B7690",
"$. c #6A7791",
"%. c #677992",
"&. c #677A93",
"*. c #607F97",
"=. c #697892",
"-. c #846380",
";. c #806583",
":. c #806683",
">. c #57869D",
",. c #56879D",
"<. c #5D8199",
"1. c #5F8098",
"2. c #5C829A",
"3. c #59849B",
"4. c #5A849B",
"5. c #58859C",
"6. c #53899F",
"7. c #54889E",
"8. c #4F8CA1",
"9. c #4D8DA3",
"0. c #4E8DA2",
"q. c #4D8EA3",
"w. c #4C8FA4",
"e. c #508BA1",
"r. c #528AA0",
"t. c #4792A7",
"y. c #4693A7",
"u. c #4991A5",
"i. c #4B90A4",
"p. c #4A90A5",
"a. c #4891A6",
"s. c #4892A6",
"d. c #4693A8",
"f. c #4594A8",
/* pixels */
"f.f.f.f.f.f.f.f.f.f.f.f.f.f.f.f.f.f.f.f.f.f.f.f.f.f.f.f.f.f.f.f.f.f.f.f.f.f.f.f.f.f.f.f.f.f.f.f.f.f.f.f.f.f.f.f.f.f.f.f.f.f.f.f.",
"f.f.f.f.f.f.f.f.f.f.f.f.f.f.f.f.f.f.f.f.f.f.f.f.f.f.f.f.f.f.f.f.f.f.f.f.f.f.f.f.f.f.f.f.f.f.f.f.f.f.f.f.f.f.f.f.f.f.f.f.f.f.f.f.",
"f.f.f.f.f.f.f.f.f.f.f.f.f.f.f.f.f.f.f.f.f.f.f.f.f.f.f.f.f.f.f.f.f.f.f.f.f.f.f.f.f.f.f.f.f.f.f.f.f.f.f.f.f.f.f.f.f.f.f.f.f.f.f.f.",
"f.f.f.f.f.f.f.f.f.f.f.f.f.f.f.f.f.f.f.f.f.f.f.f.f.f.f.f.f.f.f.f.f.f.f.f.f.f.f.f.f.f.f.f.f.f.f.f.f.f.f.f.f.f.f.f.f.f.f.f.f.f.f.f.",
"f.f.f.f.f.f.f.f.f.f.f.f.f.f.f.f.f.f.f.f.f.f.f.f.f.f.f.f.f.f.f.f.f.f.f.f.f.f.f.f.f.f.f.f.f.f.f.f.f.f.f.f.f.f.f.f.f.f.f.f.f.f.f.f.",
"f.f.f.f.f.f.f.f.f.f.f.f.f.f.f.f.f.f.f.f.f.f.f.f.f.f.f.f.f.f.f.f.f.f.f.f.f.f.f.f.f.f.f.f.f.f.f.f.f.f.f.f.f.f.f.f.f.f.f.f.f.f.f.f.",
"f.f.f.f.f.f.f.f.f.f.f.f.f.f.f.f.f.f.f.f.f.f.f.f.f.f.f.f.f.f.r., Q p.f.f.f.f.f.f.f.f.f.f.f.f.f.f.f.f.f.f.f.f.f.f.f.f.f.f.f.f.f.f.",
"f.f.f.f.f.f.f.f.f.f.f.f.f.f.f.f.f.f.f.f.f.f.f.f.f.f.f.f.f.{ r o o C <.f.f.f.f.f.f.f.f.f.f.f.f.f.f.f.f.f.f.f.f.f.f.f.f.f.f.f.f.f.",
"f.f.f.f.f.f.f.f.f.f.f.f.f.f.f.f.f.f.f.f.f.f.f.f.f.f.f.w.W O o o o o u [ f.f.f.f.f.f.f.f.f.f.f.f.f.f.f.f.f.f.f.f.f.f.f.f.f.f.f.f.",
"f.f.f.f.f.f.f.f.f.f.f.f.f.f.f.f.f.f.f.f.f.f.f.f.f.f.#.w O o o o o o o O ( a.f.f.f.f.f.f.f.f.f.f.f.f.f.f.f.f.f.f.f.f.f.f.f.f.f.f.",
"f.f.f.f.f.f.f.f.f.f.f.f.f.f.f.f.f.f.f.f.f.f.f.f.a.H X o o o o o o o o o o B 7.f.f.f.f.f.f.f.f.f.f.f.f.f.f.f.f.f.f.f.f.f.f.f.f.f.",
"f.f.f.f.f.f.f.f.f.f.f.f.f.f.f.f.f.f.f.f.f.f.f.*.C o o o o o o o o o o o o o r o.f.f.f.f.f.f.f.f.f.f.f.f.f.f.f.f.f.f.f.f.f.f.f.f.",
"f.f.f.f.f.f.f.f.f.f.f.f.f.f.f.f.f.f.f.f.f.f.R & o o o o o o o o o o o o o o o O U f.f.f.f.f.f.f.f.f.f.f.f.f.f.f.f.f.f.f.f.f.f.f.",
"f.f.f.f.f.f.f.f.f.f.f.f.f.f.f.f.f.f.f.f.5.v o o o o o o o o o o o o o o o o o o O S e.f.f.f.f.f.f.f.f.f.f.f.f.f.f.f.f.f.f.f.f.f.",
"f.f.f.f.f.f.f.f.f.f.f.f.f.f.f.f.f.f.f.;.u o o o o o o o o o o o o o o o o o o o O o d &.f.f.f.f.f.f.f.f.f.f.f.f.f.f.f.f.f.f.f.f.",
"f.f.f.f.f.f.f.f.f.f.f.f.f.f.f.f.f.q.9 o o o o o o o o o o o o o o o o o o o o o o o O & P f.f.f.f.f.f.f.f.f.f.f.f.f.f.f.f.f.f.f.",
"f.f.f.f.f.f.f.f.f.f.f.f.f.f.f.f...a o o o o o o o o o o o o o o o o o o o o o o o o o o o 6 w.f.f.f.f.f.f.f.f.f.f.f.f.f.f.f.f.f.",
"f.f.f.f.f.f.f.f.f.f.f.f.f.f.w.~ O O o o o o o o o o o o o o o o o o o o o o o o o o o o o o x *.f.f.f.f.f.f.f.f.f.f.f.f.f.f.f.f.",
"f.f.f.f.f.f.f.f.f.f.f.f.f.&.q o o o o o o o o o o o o o o o o o o o o o o o o o o o o o o o o u ;.f.f.f.f.f.f.f.f.f.f.f.f.f.f.f.",
"f.f.f.f.f.f.f.f.f.f.f.f.Y O O o o o o o o o o o o o o o o o o o o o o o o o o o o o o o o o o o O ~ a.f.f.f.f.f.f.f.f.f.f.f.f.f.",
"f.f.f.f.f.f.f.f.f.f.<.M o o o o o o o o o o o o o o o o o o o o o o o o o o o o o o o o o o o o o o b 5.f.f.f.f.f.f.f.f.f.f.f.f.",
"f.f.f.f.f.f.f.f.f.P . o o o o o o o o o o o o o o o o o o o o o o o o o o o o o o o o o o o o o o o o p  .f.f.f.f.f.f.f.f.f.f.f.",
"f.f.f.f.f.f.f.7.S o o o o o o o o o o o o o o o o o o o o o o o o o o o o o o o o o o o o o o o o o o o O Y a.f.f.f.f.f.f.f.f.f.",
"f.f.f.f.f.f.| p o o o o o o o o o o o o o o o o o o o o o o o o o o o o o o o o o o o o o o o o o o o o O o D r.f.f.f.f.f.f.f.f.",
"f.f.f.f.q.4 O o o o o o o o o o o o o o o o o o o o o o o o o o o o o o o o o o o o o o o o o o o o o o o o o a #.f.f.f.f.f.f.f.",
"f.f.f.f.q o o o o o o o o o o o o o o o o o o o o o o o o o o o o o o o o o o o o o o o o o o o o o o o o o o o & R f.f.f.f.f.f.",
"f.f.f.f.D O o o o o o o o o o o o o o o o o o o o o o o o o o o o o o o o o o o o o o o o o o o o o o o o o o o o o 9 f.f.f.f.f.",
"f.f.f.f.P o o o o o o o o o o o o o o o o o o o o o o o o o o o o o o o o o o o o o o o o o o o o o o o o o o o o o N f.f.f.f.f.",
"f.f.f.f.>.O o o o o o o o o o o o o o o o o o o o o o o o o o o o o o o o o o o o o o o o o o o o o o o o o o o o O P f.f.f.f.f.",
"f.f.f.f.f.h o o o o o o o o o o o o o o o o o o o o o o o o o o o o o o o o o o o o o o o o o o o o o o o o o o o O r.f.f.f.f.f.",
"f.f.f.f.f._ O o o o o o o o o o o o o o o o o o o o o o o o o o o o o o o o o o o o o o o o o o o o o o o o o o o D f.f.f.f.f.f.",
"f.f.f.f.f.#.o o o o o o o o o o o o o o o o o o o o o o o o o o o o o o o o o o o o o o o o o o o o o o o o o o O -.f.f.f.f.f.f.",
"f.f.f.f.f.f.r o o o o o o o o o o o o o o o o o o o o o o o o o o o o o o o o o o o o o o o o o o o o o o o o o & w.f.f.f.f.f.f.",
"f.f.f.f.f.f.4 o o o o o o o o o o o o o o o o o o o o o o o o o o o o o o o o o o o o o o o o o o o o o o o o o 9 f.f.f.f.f.f.f.",
"f.f.f.f.f.f.} o o o o o o o o o o o o o o o o o o o o o o o o o o o o o o o o o o o o o o o o o o o o o o o O O | f.f.f.f.f.f.f.",
"f.f.f.f.f.f.q.% o o o o o o o o o o o o o o o o o o o o o o o o o o o o o o o o o o o o o o o o o o o o o o o u p.f.f.f.f.f.f.f.",
"f.f.f.f.f.f.f.v o o o o o o o o o o o o o o o o o o o o o o o o o o o o o o o o o o o o o o o o o o o o o o o 4 f.f.f.f.f.f.f.f.",
"f.f.f.f.f.f.f.E o o o o o o o o o o o o o o o o o o o o o o o o o o o o o o o o o o o o o o o o o o o o o o o ..f.f.f.f.f.f.f.f.",
"f.f.f.f.f.f.f.2.o o o o o o o o o o o o o o o o o o o o o o o o o o o o o o o o o o o o o o o o o o o o o o r f.f.f.f.f.f.f.f.f.",
"f.f.f.f.f.f.f.y.h o o o o o o o o o o o o o o o o o o o o o o o o o o o o o o o o o o o o o o o o o o o o o ~ f.f.f.f.f.f.f.f.f.",
"f.f.f.f.f.f.f.f.( o o o o o o o o o o o o o o o o o o o o o o o o o o o o o o o o o o o o o o o o o o o o o #.f.f.f.f.f.f.f.f.f.",
"f.f.f.f.f.f.f.f.o.o o o o o o o o o o o o o o o o o o o o o o o o o o o o o o o o o o o o o o o o o o o o w f.f.f.f.f.f.f.f.f.f.",
"f.f.f.f.f.f.f.f.y.u o o o o o o o o o o o o o o o o o o o o o o o o o o o o o o o o o o o o o o o o o o o _ f.f.f.f.f.f.f.f.f.f.",
"f.f.f.f.f.f.f.f.y.5 o o o o o o o o o o o o o o o o o o o o o o o o o o o o o o o o o o o o o o o o o o o *.f.f.f.f.f.f.f.f.f.f.",
"f.f.f.f.f.f.f.f.f.} o o o o o o o o o o o o o o o o o o o o o o o o o o o o o o o o o o o o o o o o o o h f.f.f.f.f.f.f.f.f.f.f.",
"f.f.f.f.f.f.f.f.y.q.O o o o o o o o o o o o o o o o o o o o o o o o o o o o o o o o o o o o o o o o o o T f.f.f.f.f.f.f.f.f.f.f.",
"f.f.f.f.f.f.f.f.f.f.B o o o o o o o o o o o o o o o o o o o o o o o o o o o o o o o o o o o o o o o o O 5.f.f.f.f.f.f.f.f.f.f.f.",
"f.f.f.f.f.f.f.f.f.f.U o o o o o o o o o o o o o o o o o o o o o o o o o o o o o o o o o o o o o o o o N f.f.f.f.f.f.f.f.f.f.f.f.",
"f.f.f.f.f.f.f.f.f.f.*.o o o o o o o o o o o o o o o o o o o o o o o o o o o o o o o o o o o o o o o o J f.f.f.f.f.f.f.f.f.f.f.f.",
"f.f.f.f.f.f.f.f.f.f.f.q o o o o o o o o o o o o o o o o o o o o o o o o o o o o o o o o o o o o o o O r.f.f.f.f.f.f.f.f.f.f.f.f.",
"f.f.f.f.f.f.f.f.f.f.f.~ o o o o o o o o o o o o o o o o o o o o o o o o o o o o o o o o o o o o o o D f.f.f.f.f.f.f.f.f.f.f.f.f.",
"f.f.f.f.f.f.f.f.f.f.f...o o o o o o o o o o o o o o o o o o o o o o o o o o o o o o o o o o o o o o -.f.f.f.f.f.f.f.f.f.f.f.f.f.",
"f.f.f.f.f.f.f.f.f.f.f.y.u o o o o o o o o o o o o o o o o o o o o o o o o o o o o o o o o o o o o & r.f.f.f.f.f.f.f.f.f.f.f.f.f.",
"f.f.f.f.f.f.f.f.f.f.f.f., o o o o o o o o o o o o o o o o o o o o o o o o o o o o o o o o o o o o 9 f.f.f.f.f.f.f.f.f.f.f.f.f.f.",
"f.f.f.f.f.f.f.f.f.f.f.f.-.o o o o o o o o o o o o o o o o o o o o o o o o o o o o o o o o o o o o } f.f.f.f.f.f.f.f.f.f.f.f.f.f.",
"f.f.f.f.f.f.f.f.f.f.f.f.r.O o o o o o o o o o o o o o o o o o o o o o o o o o o o o o o o o o o u w.f.f.f.f.f.f.f.f.f.f.f.f.f.f.",
"f.f.f.f.f.f.f.f.f.f.f.f.f.M o o o o o o o o o o o o o o o o o o o o o o o o o o o o o o o o o o 4 f.f.f.f.f.f.f.f.f.f.f.f.f.f.f.",
"f.f.f.f.f.f.f.f.f.f.f.f.f.Y o o o O o o o o o o o o o O o o o O o o o o o o o o o o o o o o o o O.f.f.f.f.f.f.f.f.f.f.f.f.f.f.f.",
"f.f.f.f.f.f.f.f.f.f.f.f.f.0.#.#.....[ } } L L L U T T ( ) ~ ` ` 6 , , S v B C h h w e a u ; . r f.f.f.f.f.f.f.f.f.f.f.f.f.f.f.f.",
"f.f.f.f.f.f.f.f.f.f.f.f.f.f.f.f.f.f.y.f.y.y.f.f.f.f.f.f.f.f.f.f.f.f.f.f.f.f.f.f.f.f.f.f.f.f.f.f.f.f.f.f.f.f.f.f.f.f.f.f.f.f.f.f.",
"f.f.f.f.f.f.f.f.f.f.f.f.f.f.f.f.f.f.f.f.f.f.f.f.f.f.f.f.f.f.f.f.f.f.f.f.f.f.f.f.f.f.f.f.f.f.f.f.f.f.f.f.f.f.f.f.f.f.f.f.f.f.f.f.",
"f.f.f.f.f.f.f.f.f.f.f.f.f.f.f.f.f.f.f.f.f.f.f.f.f.f.f.f.f.f.f.f.f.f.f.f.f.f.f.f.f.f.f.f.f.f.f.f.f.f.f.f.f.f.f.f.f.f.f.f.f.f.f.f.",
"f.f.f.f.f.f.f.f.f.f.f.f.f.f.f.f.f.f.f.f.f.f.f.f.f.f.f.f.f.f.f.f.f.f.f.f.f.f.f.f.f.f.f.f.f.f.f.f.f.f.f.f.f.f.f.f.f.f.f.f.f.f.f.f.",
"f.f.f.f.f.f.f.f.f.f.f.f.f.f.f.f.f.f.f.f.f.f.f.f.f.f.f.f.f.f.f.f.f.f.f.f.f.f.f.f.f.f.f.f.f.f.f.f.f.f.f.f.f.f.f.f.f.f.f.f.f.f.f.f."
};
