/* XPM */
static char *_07452a78cc04e319e0051721bfb33ccTj6nvyi0zY88aqCm[] = {
/* columns rows colors chars-per-pixel */
"64 64 93 2 ",
"   c #010105",
".  c #040309",
"X  c #0B0B0D",
"o  c #0C0C10",
"O  c #161616",
"+  c #16161A",
"@  c #201F23",
"#  c #02252C",
"$  c #202020",
"%  c #272728",
"&  c #2C2C2E",
"*  c #2F2F31",
"=  c #333334",
"-  c #3A393B",
";  c #07444F",
":  c #074651",
">  c #094D59",
",  c #0A515E",
"<  c #0B5664",
"1  c #0F6474",
"2  c #10697A",
"3  c #4E4E4F",
"4  c #4F4F50",
"5  c #535354",
"6  c #575758",
"7  c #59595A",
"8  c #5F5F61",
"9  c #605F61",
"0  c #626264",
"q  c #676768",
"w  c #69696A",
"e  c #767577",
"r  c #777779",
"t  c #78777A",
"y  c #7A7A7B",
"u  c #137385",
"i  c #14798C",
"p  c #7E7E80",
"a  c #168195",
"s  c #178599",
"d  c #198CA1",
"f  c #1B96AD",
"g  c #1C98AF",
"h  c #1C99B0",
"j  c #7193B8",
"k  c #848485",
"l  c #878789",
"z  c #888789",
"x  c #898989",
"c  c #959596",
"v  c #979799",
"b  c #9A9A9B",
"n  c #A5A5A6",
"m  c #A7A6A8",
"M  c #A9A9A9",
"N  c #A9A9AA",
"B  c gray73",
"V  c #8EA5C1",
"C  c #A5B5CA",
"Z  c #A5B5CB",
"A  c #B8C3D4",
"S  c #C1C1C1",
"D  c #C3C2C4",
"F  c #C4C3C7",
"G  c gray77",
"H  c #C5C5C5",
"J  c #C6C5C7",
"K  c #C6C6C6",
"L  c #C6C6C7",
"P  c #C8C8C8",
"I  c gray81",
"U  c #C7CFD9",
"Y  c #C7CFDA",
"T  c #C8CFDB",
"R  c LightGray",
"E  c #D5D5D6",
"W  c #D7D7D9",
"Q  c #D8D8DA",
"!  c #D9D9DB",
"~  c #DAD9DD",
"^  c #DBDBDD",
"/  c #DCDCDD",
"(  c #DDDDDD",
")  c gray87",
"_  c #E1E1E1",
"`  c gray89",
"'  c #E3E4E7",
"]  c #E4E4E4",
"[  c gray90",
"{  c #E6E6E7",
"}  c #E3E4E8",
"|  c #E9E8EA",
" . c #E8E8EC",
/* pixels */
"h h h h h h h h h h h h h h h h h h h h h h h h h h h h h h h h h h h h h h h h h h h h h h h h h h h h h h h h h h h h h h h h ",
"h h h h h h h h h h h h h h h h h h h h h h h h h h h h h h h h h h h h h h h h h h h h h h h h h h h h h h h h h h h h h h h h ",
"h h h h h h h h h h h h h h h h h h h h h h h h h h h h h h h h h h h h h h h h h h h h h h h h h h h h h h h h h h h h h h h h ",
"h h h h h h h h h h h h h h h h h h h h h h h h h h h h h h h h h h h h h h h h h h h h h h h h h h h h h h h h h h h h h h h h ",
"h h h h h h h h h h h h h h h h h h h h h h h h h h h h h h h h h h h h h h h h h h h h h h h h h h h h h h h h h h h h h h h h ",
"h h h h h h h h h h h h h h h h h h h h h h h h h h h h h h h h h h h h h h h h h h h h h h h h h h h h h h h h h h h h h h h h ",
"h h h h h h h h h h h h h h h h h h h h h h h h h h h h h h h h h h h h h h h h h h h h h h h h h h h h h h h h h h h h h h h h ",
"h h h h h h h h h h h h h h h h h h h h h h h h h h h h h h h h h h h h h h h h h h h h h h h h h h h h h h h h h h h h h h h h ",
"h h h h h h h h h h h h h h h h h h h h h h h h h h h h h h g g h h h h h h h h h h h h g h h h h h g g h h h h h h h h h h h h ",
"h h h h h h h h h h h h h h h h h h h h h h h h h h h h h h h g h h h h h h h h h h h h g g h h h h h g h h h h h h g g h h h h ",
"h h h h h h h h h h h h h h h h h h h h h h h h h h h h h h g g h h h h h h h h h h h h h h g g h h g g h h h h h g g h h h h h ",
"h h h h h h h h h h h h h h h h h h h h h h h h L L G G S G G S L G P h h h h ( P P G G G P G G S A J L L L L L P P P G P h h h ",
"h h h h h h h h h h h h h h h h h h h h g g g k                 X * I h h h g n                 X M 6                   . g g g ",
"h h h h h h h h h h h h h h h h h h h h g g k .                 & E h h h h g m                 n g 6                   X g h g ",
"h h h h h h h h h h h h h h h h h h g g g k . .             . % I h h h h h h N             X N g g 6                   . h h h ",
"h h h h h h h h h h h h h h h h h h h g k . . .         . . & I g g h h h h h N             n g g g 6                 . . h h h ",
"h h h h h h h h h h h h h h h h h h h k . . . . .   . . . * E h h h h h h h h n         X N h h g g 7             . .   . g g g ",
"h h h h h h h h h h h h h h h h h h l . .   .     X     & I h h h h h h h h h n       . n h h h g g 7                   . g h h ",
"h h h h h h h h h h h h h h h h h l . .               & I h h h h h h h h h h n     X n g h h h g g 7                   . h h h ",
"h h h h h h h h h h h h h h h h x . . . .           & R h h h h h h h h h h h n   . N h h h h h h g 7                   . h h h ",
"h h h h h h h h h h h h h g g k   . .             % R h h h h h h h h h h h h n X n h h h h h h h h 7                     g g g ",
"h h h h h h h h h h h h h j y X   .       .     & I h h h h h h h h h h h h h n N h h h h h h h h h 7                   X g g g ",
"h h h h h h h h h h h h h y . . .           X & I g h h h h h h h h h h h h h ] h h h h h h h g h _ * .             . . w h h h ",
"h h h h h h h h h h h j y . . . .           & R h h h h h h h h h h h h h h h h h h h h h h h g ] 3 . .             X w T h h h ",
"h h h h h h h h h h h r   . .   .         & R h h h h h h h h h h h h h h h h h h h h h h h h ` 4 .     .   . .     0 ~ h h h h ",
"h h h h h h h h h j y . . .             & R h h h h h h h h h h h h h h h h h h h h h h h h _ 4 . . . .     . . . 0 T h h h h h ",
"h h h h h h h h h y . .               - W g h h h h h h h h h h h h h h h h h h h h h h h ] 4 X           . . . w ] h h h h h h ",
"h h h h h h h h p . . . .           - ( h h h h h h h h h h h h h h h h h h h h h h h h _ 5 . . .       .   . 0 ] h h h h h h h ",
"h h h h h h h r . . . .           - E h h h h h h h h h h h h h h h h h h h h h h h h ] 5 . .         . . . 0 Y h h h h h h h h ",
"h h h h h h e . . .             - ! h h h h h h h h h h h h h h h h h h h h h h h h _ 5   .   . .       . 9 | h h h h h h h h h ",
"h h h h h y . . .             = W h h h h h h h h h h h h h h h h h h h h h h h h ] 4 . . . .   . . . . 0 T h h h h h h h h h h ",
"h h h h r . . .             = ( h h h h h h h h h h h h h h h h h h h h h h h h ] 5   .           . . 8 } h h h h h h h h h h h ",
"g h h p   .               @ F  .A A A Z Z Z Z A C C C C Z Z C C A C C g g h h _ 6                   9 ] h h h h h h h h h h h h ",
"h h ( . . .               . o o o o o o o o o o X X X X X X o X X X @ V g h h n   . . .             E h h h h h h h g g b g h h ",
"h h (                     .                                         O h h h h n                     ! g h h h h h h h v X h h h ",
"h h (     .         .   .                                   . .     O g h h g n         .           ! g h h h h h h c X X h h h ",
"h h _                           .                           .       O h h h h n           .         ( g g g h h h b   .   h h h ",
"h h (                                       .                     . + h h h h n                     ( h h h h h b X .   X h h h ",
"h h )                                                               + h h h h n                     ( h h h h v X     . . h h h ",
"h h )                         .   .                           .     + h h h g n     . . .         . ( h h h c X     . .   h h h ",
"h h (           . .   .           .       .                         + h h h h n       .             ^ h g n   X         . g g g ",
"h h ] q w w w w w w w w w w w w w q w w w w w w *   .   .           + h h h h n     .           . . ^ g c X           . X g g g ",
"h h h h h h h h h h h h h g g h h h h h h h h f r     .             + h h h h m .   .   .   . .     R c   X             . h h h ",
"h h h h h h h h h h h h g g h h h h h h h h h h y                   + h h h h B z z x l x x l x x l n k x x x x x x x k x h h h ",
"h h h h h h h h h h h h h h h h h h h h h h h h y   .               + h h h h h h h h h h h h h g g g h h h h h h h h h h h h h ",
"h h h h h h h h h h h h h h h h h h h h h h h h y                   + h h h h h h h h h h h h h g g h h h h h h h h h h h h h h ",
"h h h h h h h h h h h h h h h h h h h h h h h h y                   + h h h h h h h h h h h h h h h h h h h h h h h h h h h h h ",
"h h h h h h h h h h h h h h h h h h h h h h h h y                   + h h h h h h h h h h h h h h h h h h h h h h h h h h h h h ",
"h h h h h h h h h h h h h h h h h h h h h h h h y                 . O h g g         > s : g g g : s a     2             d h h h ",
"h h h h h h h h h h h h h h h h h h h h h h h h y                 . + h g g # h g h h h 2 2 g 2 i g g a 1 h g h i 2 g g h h h h ",
"h h h h h h h h h h h h h h h h h h h h h h h h y                   O h h g # g g h g h g : 2 < g g g i 1 g h h i 2 g g h h h h ",
"h h h h h h h h h h h h h h h h h h h h h h h h y                   O h h g         > g g a   d g g f a 1 h h h i 1 g g h h h h ",
"h h h h h h h h h h h h h h h h h h h h h h h h I S D A S S G G S G G h h g # h g h h h f : 2 , g g g i 1 g h h i 2 h h h h h h ",
"h h h h h h h h h h h h h h h h h h h h h h h h h h h h g g h h g g h h h g # h h h h h 2 u h 1 u g g a 1 g h h i 2 h h h h h h ",
"h h h h h h h h h h h h h h h h h h h h h h h h h h h h g h h h h h h h h g         > a , h g f ; s a     2 h h i 2 h h h h h h ",
"h h h h h h h h h h h h h h h h h h h h h h h h h h h h g h h h h h h h h g g g g h h h h h h h g g g g g g h h g g h h h h h h ",
"h h h h h h h h h h h h h h h h h h h h h h h h h h h h h h h h h h h h h h h h h h h h h h h h h h h h h h h h g g h h h h h h ",
"h h h h h h h h h h h h h h h h h h h h h h h h h h h h h h h h h h h h h h h h h h h h h h h h h h h h h h h h g g h h h h h h ",
"h h h h h h h h h h h h h h h h h h h h h h h h h h h h h h h h h h h h h h h h h h h h h h h h h h h h h h h h g h h h h h h h ",
"h h h h h h h h h h h h h h h h h h h h h h h h h h h h h h h h h h h h h h h h h h h h h h h h h h h h h h h h h h h h h h h h ",
"h h h h h h h h h h h h h h h h h h h h h h h h h h h h h h h h h h h h h h h h h h h h h h h h h h h h h h h h h h h h h h h h ",
"h h h h h h h h h h h h h h h h h h h h h h h h h h h h h h h h h h h h h h h h h h h h h h h h h h h h h h h h h h h h h h h h ",
"h h h h h h h h h h h h h h h h h h h h h h h h h h h h h h h h h h h h h h h h h h h h h h h h h h h h h h h h h h h h h h h h ",
"h h h h h h h h h h h h h h h h h h h h h h h h h h h h h h h h h h h h h h h h h h h h h h h h h h h h h h h h h h h h h h h h "
};
