/* XPM */
static char *_c2c322aa740436caad49f65511996514HnXCwqs6fL5rkz2[] = {
/* columns rows colors chars-per-pixel */
"64 64 6 1 ",
"  c red",
". c #FF3D3D",
"X c #FEE0E0",
"o c #FBF7F7",
"O c #FEF7F7",
"+ c #FEFEFE",
/* pixels */
"oooooooooooooooooooooooooooooooooooooooooooooooooooooooooooooooo",
"oooooooooooooooooooooooooooooooooooooooooooooooooooooooooooooooo",
"oooooooooooooooooooooooooooooooooooooooooooooooooooooooooooooooo",
"ooo                                                          ooo",
"ooo                                                          ooo",
"ooo                                                          ooo",
"ooo                                                          ooo",
"ooo                                                          ooo",
"ooo                                                          ooo",
"ooo                                                          ooo",
"ooo              O++++++++++++++++++++++++++++X              ooo",
"ooo              O++++++++++++++++++++++++++++X              ooo",
"ooo              O++++++++++++++++++++++++++++X              ooo",
"ooo              O++++++++++++++++++++++++++++X              ooo",
"ooo              O++++++++++++++++++++++++++++X              ooo",
"ooo              O+++++.                                     ooo",
"ooo              O+++++.                                     ooo",
"ooo              O+++++.                                     ooo",
"ooo              O+++++.                                     ooo",
"ooo              O+++++.                                     ooo",
"ooo              O+++++.                                     ooo",
"ooo              O+++++.                                     ooo",
"ooo              O+++++.                                     ooo",
"ooo              O+++++.                                     ooo",
"ooo              O+++++.                                     ooo",
"ooo              O+++++.                                     ooo",
"ooo              O+++++.                                     ooo",
"ooo              O+++++.                                     ooo",
"ooo              O++++++++++++++++++++++++++++X              ooo",
"ooo              O++++++++++++++++++++++++++++X              ooo",
"ooo              O++++++++++++++++++++++++++++X              ooo",
"ooo              O++++++++++++++++++++++++++++X              ooo",
"ooo              O++++++++++++++++++++++++++++X              ooo",
"ooo              O+++++.                                     ooo",
"ooo              O+++++.                                     ooo",
"ooo              O+++++.                                     ooo",
"ooo              O+++++.                                     ooo",
"ooo              O+++++.                                     ooo",
"ooo              O+++++.                                     ooo",
"ooo              O+++++.                                     ooo",
"ooo              O+++++.                                     ooo",
"ooo              O+++++.                                     ooo",
"ooo              O+++++.                                     ooo",
"ooo              O+++++.                                     ooo",
"ooo              O+++++.                                     ooo",
"ooo              O+++++.                                     ooo",
"ooo              O+++++.                                     ooo",
"ooo              O+++++.                                     ooo",
"ooo              O+++++.                                     ooo",
"ooo              O+++++.                                     ooo",
"ooo              O++++++++++++++++++++++++++++X              ooo",
"ooo              O++++++++++++++++++++++++++++X              ooo",
"ooo              O++++++++++++++++++++++++++++X              ooo",
"ooo              O++++++++++++++++++++++++++++X              ooo",
"ooo              O++++++++++++++++++++++++++++X              ooo",
"ooo                                                          ooo",
"ooo                                                          ooo",
"ooo                                                          ooo",
"ooo                                                          ooo",
"ooo                                                          ooo",
"ooo                                                          ooo",
"oooooooooooooooooooooooooooooooooooooooooooooooooooooooooooooooo",
"oooooooooooooooooooooooooooooooooooooooooooooooooooooooooooooooo",
"oooooooooooooooooooooooooooooooooooooooooooooooooooooooooooooooo"
};
