/* XPM */
static char *b8cedc3a70034c17c8d600c6dc571c9d3CSINsimeEsGgvC7[] = {
/* columns rows colors chars-per-pixel */
"64 64 32 1 ",
"  c #4594A8",
". c #4B97AB",
"X c #4C98AB",
"o c #4E99AC",
"O c #5FA3B4",
"+ c #60A4B5",
"@ c #69A9B9",
"# c #84B9C6",
"$ c #85B9C6",
"% c #A8CDD6",
"& c #A9CDD7",
"* c #AACED7",
"= c #B4D4DC",
"- c #B5D4DC",
"; c #B5D5DD",
": c #B6D5DD",
"> c #B7D5DD",
", c #D7E8EC",
"< c #D8E8ED",
"1 c #DCEBEF",
"2 c #DDEBEF",
"3 c #DDECEF",
"4 c #EEF5F7",
"5 c #EFF6F7",
"6 c #F0F6F8",
"7 c #F0F7F8",
"8 c #F7FAFB",
"9 c #F8FBFC",
"0 c #FAFCFD",
"q c #FBFCFD",
"w c #FBFDFD",
"e c white",
/* pixels */
"                                                                ",
"                                                                ",
"                                                                ",
"                                                                ",
"                                                                ",
"                                                                ",
"                                                                ",
"                                                                ",
"                                                                ",
"                                                                ",
"                                                                ",
"                                                                ",
"                                                                ",
"                                                                ",
"                                                                ",
"                                                                ",
"                          X$:,4qq4,:$X                          ",
"                        O:9eeeeeeeeee8:O                        ",
"                      .%qeeeeeeeeeeeeeeq%.                      ",
"                     O1eeeeeeeeeeeeeeeeee2O                     ",
"                    @4eeeeeeeeeeeeeeeeeeee4@                    ",
"                   +6eeeeeeeeeeeeeeeeeeeeee6O                   ",
"                  X2eeeeeeeeeeeeeeeeeeeeeeee3X                  ",
"                  %eeeeeeeeeeeeeeeeeeeeeeeeee%                  ",
"                 Oqeeeeeeeeeeeeeeeeeeeeeeeeeeq+                 ",
"                 :eeeeeeeeeeeeeeeeeeeeeeeeeeee:                 ",
"                X8eeeeeeeeeeeeeeeeeeeeeeeeeeee8X                ",
"                $eeeeeeeeeeeeeeeeeeeeeeeeeeeeee#                ",
"                :eeeeeeeeeeeeeeeeeeeeeeeeeeeeee:                ",
"                ,eeeeeeeeeeeeeeeeeeeeeeeeeeeeee,                ",
"                6eeeeeeeeeeeeeeeeeeeeeeeeeeeeee4                ",
"                qeeeeeeeeeeeeeeeeeeeeeeeeeeeeeeq                ",
"                qeeeeeeeeeeeeeeeeeeeeeeeeeeeeeeq                ",
"                6eeeeeeeeeeeeeeeeeeeeeeeeeeeeee7                ",
"                ,eeeeeeeeeeeeeeeeeeeeeeeeeeeeee,                ",
"                :eeeeeeeeeeeeeeeeeeeeeeeeeeeeee:                ",
"                #eeeeeeeeeeeeeeeeeeeeeeeeeeeeee$                ",
"                X9eeeeeeeeeeeeeeeeeeeeeeeeeeee9X                ",
"                 :eeeeeeeeeeeeeeeeeeeeeeeeeeee>                 ",
"                 Oqeeeeeeeeeeeeeeeeeeeeeeeeeeq+                 ",
"                  %eeeeeeeeeeeeeeeeeeeeeeeeee%                  ",
"                  X3eeeeeeeeeeeeeeeeeeeeeeee3X                  ",
"                   +6eeeeeeeeeeeeeeeeeeeeee4O                   ",
"                    @4eeeeeeeeeeeeeeeeeeee4@                    ",
"                     O3eeeeeeeeeeeeeeeeee3O                     ",
"                      .%qeeeeeeeeeeeeeee%.                      ",
"                        +:9eeeeeeeeee9>+                        ",
"                          X$:,7qq4<:$X                          ",
"                                                                ",
"                                                                ",
"                                                                ",
"                                                                ",
"                                                                ",
"                                                                ",
"                                                                ",
"                                                                ",
"                                                                ",
"                                                                ",
"                                                                ",
"                                                                ",
"                                                                ",
"                                                                ",
"                                                                ",
"                                                                "
};
