/* XPM */
static char *_67fd6586a9b4046a2ed27fdbfad1264JTJeBiE05RWyuUTN[] = {
/* columns rows colors chars-per-pixel */
"64 64 20 1 ",
"  c black",
". c #663300",
"X c #6B3508",
"o c #6F3709",
"O c #733909",
"+ c #7E3F11",
"@ c #874316",
"# c #874D17",
"$ c #975B20",
"% c #B46D2C",
"& c #CC6633",
"* c #CB6C33",
"= c #C87B35",
"- c #D07336",
"; c #F2A347",
": c #F4A147",
"> c #F8A548",
", c #FBA94A",
"< c #FCAA4A",
"1 c #FFAE4C",
/* pixels */
".:,;;;;;;;;;;;;;;;;;;;;;;;;;;;;;;;;;;;;;;;;;;;;;;;;;;;;;;;;;;;><",
".**************************************************************-",
".@#ooooooooooooooooooooooooooooooooooooooooooooooooooooooooooO+$",
".&1                                                          .&1",
".&1                                                          .&1",
".&1                                                          .&1",
".&1                                                          .&1",
".&1                                                          .&1",
".&1                                                          .&1",
".&1                                                          .&1",
".&1                                                          .&1",
".&1                                                          .&1",
".&1                                                          .&1",
".&1                                                          .&1",
".&1                                                          .&1",
".&1                                                          .&1",
".&1                                                          .&1",
".&1                                                          .&1",
".&1                                                          .&1",
".&1                                                          .&1",
".&1                                                          .&1",
".&1                                                          .&1",
".&1                                                          .&1",
".&1                                                          .&1",
".&1                                                          .&1",
".&1                                                          .&1",
".&1                                                          .&1",
".&1                                                          .&1",
".&1                                                          .&1",
".&1                                                          .&1",
".&1                                                          .&1",
".&1                                                          .&1",
".&1                                                          .&1",
".&1                                                          .&1",
".&1                                                          .&1",
".&1                                                          .&1",
".&1                                                          .&1",
".&1                                                          .&1",
".&1                                                          .&1",
".&1                                                          .&1",
".&1                                                          .&1",
".&1                                                          .&1",
".&1                                                          .&1",
".&1                                                          .&1",
".&1                                                          .&1",
".&1                                                          .&1",
".&1                                                          .&1",
".&1                                                          .&1",
".&1                                                          .&1",
".&1                                                          .&1",
".&1                                                          .&1",
".&1                                                          .&1",
".&1                                                          .&1",
".&1                                                          .&1",
".&1                                                          .&1",
".&1                                                          .&1",
".&1                                                          .&1",
".&1                                                          .&1",
".&1                                                          .&1",
".&1                                                          .&1",
".&1                                                          .&1",
".:,;;;;;;;;;;;;;;;;;;;;;;;;;;;;;;;;;;;;;;;;;;;;;;;;;;;;;;;;;;;><",
".**************************************************************-",
"=====%oooooooooooooooooooooooooooooooooooooooooooooooooooooooooX"
};
