/* XPM */
static char *_524f445b1584d0cfb972f5b7b6997adEnDnxlRgHUTMrvqB[] = {
/* columns rows colors chars-per-pixel */
"64 64 103 2 ",
"   c #663300",
".  c #733909",
"X  c #7E3F11",
"o  c #703C1E",
"O  c #6D3D29",
"+  c #314C63",
"@  c #344E64",
"#  c #375066",
"$  c #3A5167",
"%  c #3C5368",
"&  c #3F5569",
"*  c #41566A",
"=  c #44586C",
"-  c #465A6D",
";  c #485B6E",
":  c #4A5D6F",
">  c #4C5E70",
",  c #4E6071",
"<  c #526273",
"1  c #546474",
"2  c #576677",
"3  c #596878",
"4  c #5A6979",
"5  c #5C6A7A",
"6  c #5F6D7C",
"7  c #626F7E",
"8  c #63707F",
"9  c #65727F",
"0  c #874316",
"q  c #874D17",
"w  c #975B20",
"e  c #A8652D",
"r  c #CC6633",
"t  c #CB6C33",
"y  c #C87B35",
"u  c #D07336",
"i  c #F3A347",
"p  c #F4A147",
"a  c #F2A44C",
"s  c #F8A548",
"d  c #FBA94A",
"f  c #FFAE4C",
"g  c #667380",
"h  c #697582",
"j  c #6C7784",
"k  c #6E7986",
"l  c #6F7A87",
"z  c #717B88",
"x  c #727C89",
"c  c #75808B",
"v  c #76818C",
"b  c #78828D",
"n  c #79828E",
"m  c #7B848F",
"M  c #7C8590",
"N  c #7D8691",
"B  c #7F8892",
"V  c #808993",
"C  c #828B95",
"Z  c #848D96",
"A  c #858E97",
"S  c #868E98",
"D  c #889099",
"F  c #89919A",
"G  c #8B939C",
"H  c #8C949C",
"J  c #8F969F",
"K  c #90979F",
"L  c #9298A1",
"P  c #939AA2",
"I  c #959CA3",
"U  c #979DA5",
"Y  c #989EA5",
"T  c #9AA0A8",
"R  c #9BA1A8",
"E  c #9CA2A9",
"W  c #9DA3AA",
"Q  c #9FA5AB",
"!  c #A1A7AD",
"~  c #A3A8AF",
"^  c #A4A9AF",
"/  c #A4AAB0",
"(  c #A6ABB1",
")  c #A7ACB2",
"_  c #AAAEB4",
"`  c #ACB0B6",
"'  c #ACB1B7",
"]  c #ADB2B7",
"[  c #AEB2B8",
"{  c #AFB4B9",
"}  c #B0B4BA",
"|  c #B3B7BC",
" . c #B4B8BD",
".. c #B5B9BE",
"X. c #B6BABF",
"o. c #B8BCC0",
"O. c #BCC0C4",
"+. c #BFC2C6",
"@. c #C6C9CD",
"#. c #CACDD0",
"$. c #CBCED1",
"%. c #CED1D4",
"&. c #D1D3D6",
/* pixels */
"  p d a a a a a a a a a a a a a a a a a a a a a a a a a a a a a a a a a a a a a a a a a a a a a a a a a a a a a a a a a a i s d ",
"  t t t t t t t t t t t t t t t t t t t t t t t t t t t t r t t t t t t t t t t t t t t t t t t t t t t t t t t t t t t t t t u ",
"  0 q o o o o o o o o o o o o o o o o o o o o o o o o o o o o o o o o o o o o o o o o o o o o o o o o o o o o o o o o o o . X w ",
"  r f + + + + + + + + + + + + + + + + + + + + + + + + + + + + + + + + + + + + + + + + + + + + + + + + + + + + + + + + + +   r f ",
"  r f + + + + + + + + + + + + + + + + + + + + + + + + + + + + + + + + + + + + + + + + + + + + + + + + + + + + + + + + + +   r f ",
"  r f + + + + + + + + + + + + + + + + + + + + + + + + + + + + + + + + + + + + + + + + + + + + + + + + + + + + + + + + + +   r f ",
"  r f + + + > - # + + + + + + + + + + + + + + + + = - * # + + @ + + + + + + + + + + + + + + + + + + + + + + + + + + + + +   r f ",
"  r f + + + m z > $ @ + + @ # @ @ + @ @ @ @ + + * j c 8 - + @ @ # + + + # # # + # # # + # + + $ + # # + + + + + + + + + +   r f ",
"  r f + + + R L v k < + + 5 k g - $ , < < 3 * : c T T n , , z 9 : + + 1 z l 6 = , 9 m 9 : $ , 3 g k 1 + + + + + + + + + +   r f ",
"  r f + + + ( _ Y U n 2 8 B L K k 4 m Z m c h c I X.{ Z k m K K c , 7 V L T A 8 8 Z T U x > c D K Y c ; # + + + + + + + +   r f ",
"  r f + + + ) ' ( ' R K ~ R R } L A ) ' ! C T ^ E } ' J Q ~ L ' ! m E Q T ' Q B x m T +.T 9 ~ ` ) { T k % + + + + + + + +   r f ",
"  r f + + + ) ! F I E _ +.| _ | K F { ~ B h ) ' m Q ~ K { ) c I Q I X.~ m ~ Q F L T ' %.~ c ' ^ K ~ Q B : + + + + + + + +   r f ",
"  r f + + + ) Q F P R ( +.+.X.| J D ' J 1 , ^ ' A ! ^ J ' ) M T T L | ~ Z ) Q K { X.o.%.) n ` K x J I A : + + + + + + + +   r f ",
"  r f + + + ( X.X.o.R M U } o.X.J Z ) F < - J ' X.@.X.H U ) X.+.~ c J ' O.#.{ K { X.@.&.) c ) K k F L Z ; + + + + + + + +   r f ",
"  r f + + + x A G J x < 9 V F A h 7 c 8 * % 6 m J I A 9 9 m F L c 1 c T | #.' x m D J I c 3 c 9 < 8 h 6 % + + + + + + + +   r f ",
"  r f + + + + % % $ @ + + + $ % $ + + + + + + # * # + + + $ % # + % 8 B U { K > # % = + + + + + + + + + + + + + + + + + +   r f ",
"  r f + + + + + # + + + + + + # + + + + + + + + + + + + + + # + @ @ : k B x 2 # + @ @ + + + + + + + + + + + + + + + + + +   r f ",
"  r f + + + + + + + + + + + + + + + + + + + + + + + + + + + + + + @ # > 2 - # + + + + + + + + + + + + + + + + + + + + + +   r f ",
"  r f + + + + + + + + + + + + + + + + + + + + + + + + + + + + + + + + + + + + + + + + + + + + + + + + + + + + + + + + + +   r f ",
"  r f + + + + + + + + + + + + + + + + + + + + + + + + + + + + + + + + + + + + + + + + + + + + + + + + + + + + + + + + + +   r f ",
"  r f + + + + + + + + + + + + + + + + + + + + + + + + + + + + + + + + + + + + + + + + + + + + + + + + + + + + + + + + + +   r f ",
"  r f + + + + + + + + + + + + + + + + + + + + + + + + + + + + + + + + + + + + + + + + + + + + + + + + + + + + + + + + + +   r f ",
"  r f + + + + + + + + + + + + + + + + + + + + + + + + + + + + + + + + + + + + + + + + + + + + + + + + + + + + + + + + + +   r f ",
"  r f + + + + + + + + + + + + + + + + + + + + + + + + + + + + + + + + + + + + + + + + + + + + + + + + + + + + + + + + + +   r f ",
"  r f + + + + + + + + + + + + + + + + + + + + + + + + + + + + + + + + + + + + + + + + + + + + + + + + + + + + + + + + + +   r f ",
"  r f + + + + + + + + + + + + + + + + + + + + + + + + + + + + + + + + + + + + + + + + + + + + + + + + + + + + + + + + + +   r f ",
"  r f + + + + + + + + + + + + + + + + + + + + + + + + + + + + + + + + + + + + + + + + + + + + + + + + + + + + + + + + + +   r f ",
"  r f + + + + + + + + + + + + + + + + + + + + + + + + + + + + + + + + + + + + + + + + + + + + + + + + + + + + + + + + + +   r f ",
"  r f + + + + + + + + + + + + + + + + + + + + + + + + + + + + + + + + + + + + + + + + + + + + + + + + + + + + + + + + + +   r f ",
"  r f + + + + + + + + + + + + + + + + + + + + + + + + + + + + + + + + + + + + + + + + + + + + + + + + + + + + + + + + + +   r f ",
"  r f + + + + + + + + + + + + + + + + + + + + + + + + + + + + + + + + + + + + + + + + + + + + + + + + + + + + + + + + + +   r f ",
"  r f + + + + + + + + + + + + + + + + + + + + + + + + + + + + + + + + + + + + + + + + + + + + + + + + + + + + + + + + + +   r f ",
"  r f + + + + + + + + + + + + + + + + + + + + + + + + + + + + + + + + + + + + + + + + + + + + + + + + + + + + + + + + + +   r f ",
"  r f + + + + + + + + + + + + + + + + + + + + + + + + + + + + + + + + + + + + + + + + + + + + + + + + + + + + + + + + + +   r f ",
"  r f + + + + + + + + + + + + + + + + + + + + + + + + + + + + + + + + + + + + + + + + + + + + + + + + + + + + + + + + + +   r f ",
"  r f + + + + + + + + + + + + + + + + + + + + + + + + + + + + + + + + + + + + + + + + + + + + + + + + + + + + + + + + + +   r f ",
"  r f + + + + + + + + + + + + + + + + + + + + + + + + + + + + + + + + + + + + + + + + + + + + + + + + + + + + + + + + + +   r f ",
"  r f + + + + + + + + + + + + + + + + + + + + + + + + + + + + + + + + + + + + + + + + + + + + + + + + + + + + + + + + + +   r f ",
"  r f + + + + + + + + + + + + + + + + + + + + + + + + + + + + + + + + + + + + + + + + + + + + + + + + + + + + + + + + + +   r f ",
"  r f + + + + + + + + + + + + + + + + + + + + + + + + + + + + + + + + + + + + + + + + + + + + + + + + + + + + + + + + + +   r f ",
"  r f + + + + + + + + + + + + + + + + + + + + + + + + + + + + + + + + + + + + + + + + + + + + + + + + + + + + + + + + + +   r f ",
"  r f + + + + + + + + + + + + + + + + + + + + + + + + + + + + + + + + + + + + + + + + + + + + + + + + + + + + + + + + + +   r f ",
"  r f + + + + + + + + + + + + + + + + + + + + + + + + + + + + + + + + + + + + + + + + + + + + + + + + + + + + + + + + + +   r f ",
"  r f + + + + + + + + + + + + + + + + + + + + + + + + + + + + + + + + + + + + + + + + + + + + + + + + + + + + + + + + + +   r f ",
"  r f + + + + + + + + + + + + + + + + + + + + + + + + + + + + + + + + + + + + + + + + + + + + + + + + + + + + + + + + + +   r f ",
"  r f + + + + + + + + + + + + + + + + + + + + + + + + + + + + + + + + + + + + + + + + + + + + + + + + + + + + + + + + + +   r f ",
"  r f + + + + + + + + + + + + + + + + + + + + + + + + + + + + + + + + + + + + + + + + + + + + + + + + + + + + + + + + + +   r f ",
"  r f + + + + + + + + + + + + + + + + + + + + + + + + + + + + + + + + + + + + + + + + + + + + + + + + + + + + + + + + + +   r f ",
"  r f + + + + + + + + + + + + + + + + + + + + + + + + + + + + + + + + + + + + + + + + + + + + + + + + + + + + + + + + + +   r f ",
"  r f + + + + + + + + + + + + + + + + + + + + + + + + + + + + + + + + + + + + + + + + + + + + + + + + + + + + + + + + + +   r f ",
"  r f + + + + + + + + + + + + + + + + + + + + + + + + + + + + + + + + + + + + + + + + + + + + + + + + + + + + + + + + + +   r f ",
"  r f + + + + + + + + + + + + + + + + + + + + + + + + + + + + + + + + + + + + + + + + + + + + + + + + + + + + + + + + + +   r f ",
"  r f + + + + + + + + + + + + + + + + + + + + + + + + + + + + + + + + + + + + + + + + + + + + + + + + + + + + + + + + + +   r f ",
"  r f + + + + + + + + + + + + + + + + + + + + + + + + + + + + + + + + + + + + + + + + + + + + + + + + + + + + + + + + + +   r f ",
"  r f + + + + + + + + + + + + + + + + + + + + + + + + + + + + + + + + + + + + + + + + + + + + + + + + + + + + + + + + + +   r f ",
"  r f + + + + + + + + + + + + + + + + + + + + + + + + + + + + + + + + + + + + + + + + + + + + + + + + + + + + + + + + + +   r f ",
"  r f + + + + + + + + + + + + + + + + + + + + + + + + + + + + + + + + + + + + + + + + + + + + + + + + + + + + + + + + + +   r f ",
"  r f + + + + + + + + + + + + + + + + + + + + + + + + + + + + + + + + + + + + + + + + + + + + + + + + + + + + + + + + + +   r f ",
"  r f + + + + + + + + + + + + + + + + + + + + + + + + + + + + + + + + + + + + + + + + + + + + + + + + + + + + + + + + + +   r f ",
"  r f + + + + + + + + + + + + + + + + + + + + + + + + + + + + + + + + + + + + + + + + + + + + + + + + + + + + + + + + + +   r f ",
"  r f + + + + + + + + + + + + + + + + + + + + + + + + + + + + + + + + + + + + + + + + + + + + + + + + + + + + + + + + + +   r f ",
"  i s a a a a a a a a a a a a a a a a a a a a a a a a a a a a a a a a a a a a a a a a a a a a a a a a a a a a a a a a a a i s d ",
"  t t t t t t t t t t t t t t t t t t t t t t t t t t t t t t t t t t t t t t t t t t t t t t t t t t t t t t t t t t t t t t u ",
"y y y y y e o o o o o o o o o o o o o o o o o o o o o o o o o o o o o o o o o o o o o o o o o o o o o o o o o o o o o o o o o O "
};
