/* XPM */
static char *d00e2b94e64b4dfed54d152be8d53081nXErKSnQVAytdVDi[] = {
/* columns rows colors chars-per-pixel */
"64 64 2 1 ",
"  c black",
". c #FBF7F7",
/* pixels */
"................................................................",
"................................................................",
"................................................................",
"...                                                          ...",
"...                                                          ...",
"...                                                          ...",
"...                                                          ...",
"...                                                          ...",
"...                                                          ...",
"...                                                          ...",
"...                                                          ...",
"...                                                          ...",
"...                                                          ...",
"...                                                          ...",
"...                                                          ...",
"...                                                          ...",
"...                                                          ...",
"...                                                          ...",
"...                                                          ...",
"...                                                          ...",
"...                                                          ...",
"...                                                          ...",
"...                                                          ...",
"...                                                          ...",
"...                                                          ...",
"...                                                          ...",
"...                                                          ...",
"...                                                          ...",
"...                                                          ...",
"...                                                          ...",
"...                                                          ...",
"...                                                          ...",
"...                                                          ...",
"...                                                          ...",
"...                                                          ...",
"...                                                          ...",
"...                                                          ...",
"...                                                          ...",
"...                                                          ...",
"...                                                          ...",
"...                                                          ...",
"...                                                          ...",
"...                                                          ...",
"...                                                          ...",
"...                                                          ...",
"...                                                          ...",
"...                                                          ...",
"...                                                          ...",
"...                                                          ...",
"...                                                          ...",
"...                                                          ...",
"...                                                          ...",
"...                                                          ...",
"...                                                          ...",
"...                                                          ...",
"...                                                          ...",
"...                                                          ...",
"...                                                          ...",
"...                                                          ...",
"...                                                          ...",
"...                                                          ...",
"................................................................",
"................................................................",
"................................................................"
};
