/* XPM */
static char *fdb862d6d4304983e201bee62a70a4eeXOqkzobSPEUNgqHk[] = {
/* columns rows colors chars-per-pixel */
"64 64 138 2 ",
"   c black",
".  c #010000",
"X  c #000100",
"o  c #010100",
"O  c #000001",
"+  c #010001",
"@  c #020000",
"#  c #030000",
"$  c #020100",
"%  c #030100",
"&  c #020101",
"*  c #030101",
"=  c #010200",
"-  c #020200",
";  c #030200",
":  c #030102",
">  c #0B0400",
",  c #0C0401",
"<  c #0D0501",
"1  c #0E0601",
"2  c #0F0601",
"3  c #110700",
"4  c #120701",
"5  c #150701",
"6  c #230E01",
"7  c #240E01",
"8  c #260E01",
"9  c #250E02",
"0  c #321302",
"q  c #331302",
"w  c #341303",
"e  c #351402",
"r  c #351502",
"t  c #361402",
"y  c #361403",
"u  c #391502",
"i  c #391503",
"p  c #3A1502",
"a  c #3A1503",
"s  c #3A1602",
"d  c #3C1603",
"f  c #3D1603",
"g  c #3E1703",
"h  c #3F1703",
"j  c #3D1704",
"k  c #401803",
"l  c #411803",
"z  c #401903",
"x  c #421903",
"c  c #441902",
"v  c #441903",
"b  c #441A03",
"n  c #401804",
"m  c #411804",
"M  c #421904",
"N  c #441904",
"B  c #451904",
"V  c #451A04",
"C  c #4A1B03",
"Z  c #4B1B03",
"A  c #4C1B03",
"S  c #491C03",
"D  c #4A1C02",
"F  c #4A1C03",
"G  c #4B1C03",
"H  c #4D1D03",
"J  c #491B04",
"K  c #4A1B04",
"L  c #491C04",
"P  c #511E05",
"I  c #552003",
"U  c #5E2205",
"Y  c #7C2D06",
"T  c #813008",
"R  c #883308",
"E  c #943708",
"W  c #9E3C09",
"Q  c #A13D08",
"!  c #A33E09",
"~  c #A33E0A",
"^  c #A63D09",
"/  c #A43E08",
"(  c #A43E09",
")  c #A53E09",
"_  c #A63F08",
"`  c #A83F09",
"'  c #AC4107",
"]  c #A84009",
"[  c #AB4008",
"{  c #AB4009",
"}  c #A9400A",
"|  c #AB400A",
" . c #AC4108",
".. c #AD4108",
"X. c #AC4109",
"o. c #AD4109",
"O. c #AE4008",
"+. c #AE4209",
"@. c #AD410A",
"#. c #AF410A",
"$. c #B24309",
"%. c #B1420A",
"&. c #B0430A",
"*. c #B0420B",
"=. c #B3430A",
"-. c #B44409",
";. c #B64509",
":. c #B6450A",
">. c #B7450A",
",. c #B7440B",
"<. c #B6450B",
"1. c #B5460A",
"2. c #B2430C",
"3. c #B94609",
"4. c #BA450A",
"5. c #BB450B",
"6. c #B9460A",
"7. c #BA470A",
"8. c #BB470A",
"9. c #BA460B",
"0. c #BB470B",
"q. c #BD470A",
"w. c #BD470B",
"e. c #BE470A",
"r. c #BE470B",
"t. c #BD480A",
"y. c #BD480B",
"u. c #C0480A",
"i. c #C0490A",
"p. c #C0480B",
"a. c #C0490B",
"s. c #C34A0B",
"d. c #C74B0B",
"f. c #C74C0A",
"g. c #C64C0B",
"h. c #C3490C",
"j. c #C74B0C",
"k. c #C84B0B",
/* pixels */
":.:.:.:.=.:.:.<.:.:.2.<.:.<.:.:.2.:.:.:.:.$.P % % % % R =.:.<.:.:.:.=.:.:.:.:.:.=.:.:.:.:.:.=.:.:.:.:.:.2.:.:.:.:.:.:.:.#.m % % ",
"% % % % % % % % % % % % % % % % % % % % % % % % % % % % % % % % % % % % % % % % % % % % % % % % % % % % % % % % % % % % % % % % ",
"% % % % % % % % % % % % % % % % % % % % % % % % % % % % % % % % % % % % % % % % % % % % % % % % % % % % % % % % % % % % % % % % ",
"% % % % % % % % % % % % % % % % % % % % % % % % % % % % % % % % % % % % % % % % % % % % % % % % % % % % % % % % % % % % % % % % ",
"% % % % % % % % % % % % % % % % % % % % % % % % % % % % % % % % % % % % % % % % % % % % % % % % % % % % % % % % % % % % % % % % ",
"x m g % % % % , d x x B m m x x B c x x x x x c x m B c x x B c x x x c m m m x c g % % % % , g x m B c x x c B x x x c m x x x ",
"7.7.#.% % % % 6 ] 7.7.7.w.7.7.7.7.w.7.7.7.7.7.w.7.7.w.7.7.7.7.7.7.7.7.7.w.7.7.7.7.~ % % % % 0 #.7.7.w.7.7.7.7.7.7.7.7.7.w.7.7.7.",
"d.d.7.% % % % 6 :.j.d.d.d.d.d.d.d.d.k.d.d.j.d.d.j.d.d.d.d.d.k.d.d.d.d.d.d.d.k.j.j.$.% % % % w 7.d.d.d.d.j.d.k.d.d.d.d.d.d.d.d.j.",
"d.d.9.% % % % 8 $.d.d.d.d.d.d.d.d.d.d.d.d.d.d.d.d.d.d.d.d.d.d.d.d.d.d.d.d.d.d.d.d.$.: % % % 0 7.d.d.d.d.d.d.d.d.d.d.d.d.d.d.d.d.",
"d.j.9.% % % % 8 :.d.d.d.d.d.d.d.d.d.d.d.d.d.d.d.d.d.d.d.d.d.d.d.d.d.d.d.d.d.d.d.d.$.% % % % y :.d.d.d.d.d.d.d.d.d.d.d.d.d.d.d.d.",
"d.d.9.% % % % 6 $.d.d.d.d.d.d.d.d.d.d.d.d.d.d.d.d.d.d.d.d.d.d.d.d.d.d.d.d.d.d.d.j.$.% % % % w 7.d.d.d.d.d.d.d.d.d.d.d.d.d.d.d.d.",
"d.d.:.% % % % 8 :.d.d.d.d.d.d.d.d.d.d.d.d.d.d.d.d.d.d.d.d.d.d.d.d.d.d.d.d.d.d.d.j.$.% % % % y :.d.d.d.d.d.d.d.d.d.d.d.d.d.d.d.d.",
"d.d.7.% % % % 8 $.d.d.d.d.d.d.d.d.d.d.d.d.d.d.d.d.d.d.d.d.d.d.d.d.d.d.d.d.d.d.d.d.$.% % % % y 7.d.d.d.d.d.d.d.d.d.d.d.d.d.d.d.d.",
"d.d.9.% % % % 6 :.d.d.d.d.d.d.d.d.d.d.d.d.d.d.d.d.d.d.d.d.d.d.d.d.d.d.d.d.d.d.d.j.$.% % % % w 7.d.d.d.d.d.d.d.d.d.d.d.d.d.d.d.d.",
"d.d.9.% % % % 8 $.d.d.d.d.d.d.d.d.d.d.d.d.d.d.d.d.d.d.d.d.d.d.d.d.d.d.d.d.d.d.d.j.$.% % % % 0 7.d.d.d.d.d.d.d.d.d.d.d.d.d.d.d.d.",
"d.j.9.% % % % 8 -.d.d.d.d.d.d.d.d.d.d.d.d.d.d.d.d.d.d.d.d.d.d.d.d.d.d.d.d.d.d.d.d.$.% % % % y :.d.d.d.d.d.d.d.d.d.d.d.d.d.d.d.d.",
"d.d.7.: % % % 6 $.d.d.d.d.d.d.d.d.d.d.d.d.d.d.d.d.d.d.d.d.d.d.d.d.d.d.d.d.d.d.d.j.$.% % % % y 7.d.d.d.d.d.d.d.d.d.d.d.d.d.d.d.d.",
"d.d.7.: % % % 8 :.d.d.d.d.d.d.d.d.d.d.d.d.d.d.d.d.d.d.d.d.d.d.d.d.d.d.d.d.d.d.d.j.$.% % % % y :.d.d.d.d.d.d.d.d.d.d.d.d.d.d.d.d.",
"d.k.7.: % % % 6 =.d.d.k.d.d.d.d.d.d.d.d.d.d.d.d.j.d.d.k.d.d.d.d.d.d.d.d.d.d.j.k.d.$.% % % % y 7.d.d.d.d.d.d.d.d.d.d.d.d.d.d.d.d.",
"w.u.$.: % % % 8 #.u.u.t.u.u.u.u.u.u.u.u.u.u.u.u.u.u.u.t.u.u.u.u.u.u.u.u.u.u.u.t.y.#.% % % % 0 $.u.u.u.u.u.u.u.w.u.u.u.u.u.u.u.u.",
"j j d % % % % > y g x g g g g g x g m j x g j x j j x g j j m j x g g x j g x j j a % % % % , a l l g g x g g x g g g g x g g x ",
"% % % % % % % % % % % % % % % % % % % % % % % % % % % % % % % % % % % % % % % % % % % % % % % % % % % % % % % % % % % % % % % % ",
"% % % % % % % % % % % % % % % % % % % % % % % % % % % % % % % % % % % % % % % % % % % % % % % % % % % % % % % % % % % % % % % % ",
"% % % % % % % % % % % % % % % % % % % % % % % % % % % % % % % % % % % % % % % % % % % % % % % % % % % % % % % % % % % % % % % % ",
"% % % % % % % : % : % % % % % % % % % % % % % % % % % % % % % % % % : % % % % % : % % % % % % % % % % % % % % % % % : % % % % % ",
"Q Q ~ ~ ~ ~ Q ~ ~ ~ ~ ~ / ~ ~ ~ Q Q Q Q Q Q H % % % % Y Q Q Q Q Q Q ~ Q ~ ~ ~ Q ~ ~ ~ ~ ~ Q ~ ~ ~ ~ ~ ~ ~ ~ Q ~ Q Q ~ Q W g % % ",
"d.d.j.j.d.d.d.d.d.d.k.k.d.d.d.d.d.d.j.j.d.u.U % % % % E d.d.d.d.j.d.d.d.d.d.k.k.d.d.d.d.k.d.d.d.d.d.d.d.k.k.d.d.j.d.d.d.t.S % % ",
"d.d.d.j.d.d.d.d.d.d.d.k.d.d.d.d.d.k.j.j.j.u.U % % % % E d.d.d.d.j.d.d.d.d.d.k.k.d.d.d.d.k.k.d.d.d.d.d.d.d.d.d.d.j.d.d.d.u.S % % ",
"d.d.d.d.d.d.d.d.d.d.d.d.d.d.d.d.d.d.d.d.d.u.U % % % % E j.j.d.d.d.d.d.d.d.d.d.d.d.d.d.d.d.d.d.d.d.d.d.d.d.d.d.d.d.d.d.d.u.G % % ",
"d.d.d.d.d.d.d.d.d.d.d.d.d.d.d.d.d.d.d.d.g.j.U % % % % E d.j.d.d.d.d.d.d.d.d.d.d.d.d.d.d.d.d.d.d.d.d.d.d.d.d.d.d.d.d.d.d.u.H % % ",
"d.d.d.d.d.d.d.d.d.d.d.d.d.d.d.d.d.d.d.d.d.j.U % % % % E d.d.d.d.d.d.d.d.d.d.d.d.d.d.d.d.d.d.d.d.d.d.d.d.d.d.d.d.d.d.d.d.t.S % % ",
"d.d.d.d.d.d.d.d.d.d.d.d.d.d.d.d.d.d.d.d.d.u.U % % % % E d.d.d.d.d.d.d.d.d.d.d.d.d.d.d.d.d.d.d.d.d.d.d.d.d.d.d.d.d.d.d.k.u.S % % ",
"d.d.d.d.d.d.d.d.d.d.d.d.d.d.d.d.d.d.d.d.g.u.U % % % % E d.d.d.d.d.d.d.d.d.d.d.d.d.d.d.d.d.d.d.d.d.d.d.d.d.d.d.d.d.d.d.d.u.G % % ",
"d.d.d.d.d.d.d.d.d.d.d.d.d.d.d.d.d.d.d.d.j.h.U % % % % E d.d.d.d.d.d.d.d.d.d.d.d.d.d.d.d.d.d.d.d.d.d.d.d.d.d.d.d.d.d.d.d.u.G % % ",
"d.d.d.d.d.d.d.d.d.d.d.d.d.d.d.d.d.d.d.d.d.u.U % % % % E d.d.d.d.d.d.d.d.d.d.d.d.d.d.d.d.d.d.d.d.d.d.d.d.d.d.d.d.d.d.d.d.t.S % % ",
"d.d.d.d.d.d.d.d.d.d.d.d.d.d.d.d.d.d.d.d.g.j.U % % % % E d.d.d.d.d.d.d.d.d.d.d.d.d.d.d.d.d.d.d.d.d.d.d.d.d.d.d.d.d.d.d.d.u.S % % ",
"d.d.d.d.d.d.d.d.d.d.d.d.d.d.d.d.d.d.d.d.d.u.U % % % % E d.d.d.d.d.d.d.d.d.d.d.d.d.d.d.d.d.d.d.j.d.d.d.d.d.d.d.d.d.d.d.d.u.G % % ",
"d.d.d.d.d.d.d.d.d.d.d.d.d.d.d.d.d.d.d.d.d.h.U % % % % E d.d.d.d.d.d.d.d.d.d.d.d.d.d.d.d.d.d.d.j.d.d.k.g.d.d.d.d.d.d.d.d.u.H % % ",
"g.g.d.j.g.d.d.g.g.g.d.d.g.g.j.j.g.g.d.d.j.h.U % % % % E g.d.d.d.d.d.g.d.d.d.d.d.g.g.g.g.d.d.j.j.d.g.d.g.d.d.d.g.d.d.d.d.u.S % % ",
"#.[ [ #.[ #.' [ #.[ [ #.[ [ [ [ #.[ #.[ #.] H % % % % Y #.[ [ [ ' [ [ #.[ [ #.' #.[ #.[ [ [ [ [ [ #.[ [ ' ' #.[ ' ' #.' ~ g % % ",
"% % % % % % % % % % % % % % % % % % % % % % % % % % % % % % % % % % % % % % % % % % % % % % % % % % % % % % % % % % % % % % % % ",
"% % % % % % % % % % % % % % % % % % % % % % % % % % % % % % % % % % % % % % % % % % % % % % % % % % % % % % % % % % % % % % % % ",
"% % % % % % % % % % % % % % % % % % % % % % % % % % % % % % % % % % % % % % % % % % % % % % % % % % % % % % % % % % % % % % % % ",
"% % % % % % % % % % % % % % % % % % % % % % % % % % % % % % % % % % % % % % % % % % % % % % % % % % % % % % % % % % % % % % % % ",
"K L m % % % % , x G S G S S G G S G S S c K K L S S S S S S S G c K G S G G S G c m % % % % 5 B c K G G S S S S S S S G c K G S ",
"t.t.$.% % % % 6 [ t.w.w.w.w.t.w.w.t.w.t.t.t.t.t.e.t.e.e.w.t.w.t.t.t.t.w.t.8.w.t.t.#.% % % % 0 #.t.t.t.t.w.t.e.e.w.w.w.t.t.t.t.w.",
"j.j.9.% % % % 6 -.d.d.d.d.d.d.d.d.d.d.d.d.d.d.d.d.d.d.d.d.d.d.d.d.d.d.d.d.d.d.k.g.$.% % % % 0 7.d.d.d.d.d.d.d.d.d.d.d.d.d.d.d.d.",
"g.g.<.% % % % 8 -.d.d.d.d.d.d.d.d.d.d.d.d.d.d.d.d.d.d.d.d.d.d.d.d.d.d.d.d.d.d.d.j.$.% % % % y :.d.d.d.d.d.d.d.d.d.d.d.d.d.d.d.d.",
"d.d.7.% % % % 8 $.j.d.d.d.d.d.d.d.d.d.d.d.d.d.d.d.d.d.d.d.d.d.d.d.d.d.d.d.d.d.d.j.$.% % % % w ;.d.d.d.d.d.d.d.d.d.d.d.d.d.d.d.d.",
"d.d.7.% % % % 6 :.d.d.d.d.d.d.d.d.d.d.d.d.d.d.d.d.d.d.d.d.d.d.d.d.d.d.d.d.d.d.d.j.*.% % % % w 7.d.d.d.d.d.d.d.d.d.d.d.d.d.d.d.d.",
"d.d.9.% % % % 8 $.d.d.d.d.d.d.d.d.d.d.d.d.d.d.d.d.d.d.d.d.d.d.d.d.d.d.d.d.d.d.d.j.$.% % % % y 7.d.d.d.d.d.d.d.d.d.d.d.d.d.d.d.d.",
"d.j.9.% % % % 8 :.d.d.d.d.d.d.d.d.d.d.d.d.d.d.d.d.d.d.d.d.d.d.d.d.d.d.d.d.d.d.d.j.$.% % % % w 7.d.d.d.d.d.d.d.d.d.d.d.d.d.d.d.d.",
"d.d.9.% % % % 6 $.d.d.d.d.d.d.d.d.d.d.d.d.d.d.d.d.d.d.d.d.d.d.d.d.d.d.d.d.d.d.d.j.=.: % % % 0 7.d.d.d.d.d.d.d.d.d.d.d.d.d.d.d.d.",
"d.d.9.% % % % 8 :.d.d.d.d.d.d.d.d.d.d.d.d.d.d.d.d.d.d.d.d.d.d.d.d.d.d.d.d.d.d.d.d.$.% % % % y :.d.d.d.d.d.d.d.d.d.d.d.d.d.d.d.d.",
"d.d.7.% % % % 8 $.d.d.d.d.d.d.d.d.d.d.d.d.d.d.d.d.d.d.d.d.d.d.d.d.d.d.d.d.d.d.d.j.$.% % % % y 7.d.d.d.d.d.d.d.d.d.d.d.d.d.d.d.d.",
"d.d.9.% % % % 6 -.d.d.d.d.d.d.d.d.d.d.d.d.d.d.d.d.d.d.d.d.d.d.d.d.d.d.d.d.d.d.d.j.$.% % % % 0 7.d.d.d.d.d.d.d.d.d.d.d.d.d.d.d.d.",
"j.j.9.% % % % 8 -.d.d.d.d.d.d.d.d.d.d.d.d.d.d.d.d.d.d.d.d.d.d.d.d.d.d.d.d.d.d.d.j.$.: % % % y :.d.d.d.d.d.d.d.d.d.d.d.d.d.d.d.d.",
"d.j.9.% % % % 8 -.d.d.d.d.d.d.d.d.d.d.d.d.d.d.d.d.d.d.d.d.d.d.d.d.d.d.d.d.d.d.d.j.$.: % % % y 7.d.d.d.d.d.d.d.d.d.d.d.g.d.d.d.d.",
"7.t.$.% % % % 6 [ t.w.t.t.7.t.t.t.t.y.t.t.t.t.8.w.t.t.t.t.t.t.t.7.t.t.t.w.w.w.t.t.[ % % % % 0 #.t.t.t.t.w.t.t.t.t.t.t.t.t.t.t.t.",
"a d 0 % % % % > w a a a a a a a a y d y a a a a a a a a y a a y a a a a a a a a y 0 % % % % , y a a a y a a a y a y a a a a a a ",
"% % % % % % % % % % % % % % % % % % % % % % % % % % % % % % % % % % % % % % % % % % % % % % % % % % % % % % % % % % % % % % % % ",
"% % % % % % % % % % % % % % % % % % % % % % % % % % % % % % % % % % % % % % % % % % % % % % % % % % % % % % % % % % % % % % % % ",
"% % % % % % % % % % % % % % % % % % % % % % % % % % % % % % % % % % % % % % % % % % % % % % % % % % % % % % % % % % % % % % % % ",
"% % % % % % % % % % % % % % % % % % % % % % % % % % % % % % % % % % % % % % % % % % % % % % % % % % % % % % % % % % % % % % % % "
};
